<svg width="55" height="60" viewBox="0 0 55 60" fill="none" xmlns="http://www.w3.org/2000/svg">
<g clip-path="url(#clip0_3303_3000)">
<path d="M18.8775 23.4624C14.5698 19.1558 7.53852 19.1558 3.23079 23.4624C-1.07693 27.769 -1.07693 34.7981 3.23079 39.1048C5.38466 41.2575 8.23188 42.3469 11.0541 42.3469C13.8764 42.3469 16.7236 41.2575 18.8775 39.1048C23.2102 34.7981 23.2102 27.769 18.8775 23.4624ZM17.5656 31.2836C17.5656 33.0154 16.8972 34.6495 15.6841 35.8864C13.1581 38.4114 9.02398 38.4114 6.47407 35.8626C3.92415 33.3127 3.92415 29.2046 6.44911 26.6547C7.71213 25.3927 9.37012 24.7743 11.0292 24.7743C12.7132 24.7743 14.3712 25.4177 15.6592 26.6796C16.8723 27.9177 17.5656 29.5507 17.5656 31.2836Z" fill="#193232"/>
<path d="M34.9452 40.4406C34.623 40.1195 34.2768 39.7722 33.9057 39.501L33.5585 39.2525L25.0418 47.767L28.1126 50.8356L33.2124 45.7369C34.3756 48.2119 33.9057 51.1828 31.9494 53.1132C29.4244 55.637 25.2892 55.637 22.7393 53.0882C20.1644 50.5144 20.0906 46.5051 22.6156 43.9801C23.8287 42.767 25.4878 42.0748 27.1718 42.0748H27.6916V37.3721H27.1718C24.2996 37.422 21.5761 38.5602 19.5459 40.6143C17.442 42.7182 16.3027 45.4895 16.2777 48.4593C16.2777 51.4302 17.417 54.2015 19.521 56.3054C21.626 58.4094 24.3984 59.5476 27.3443 59.5476C30.2903 59.5476 33.0887 58.3844 35.1677 56.3054C39.4754 51.9988 39.4754 44.9697 35.1677 40.6642L34.9452 40.4406Z" fill="#193232"/>
<path d="M51.4588 23.4624C49.3538 21.3585 46.5814 20.2202 43.6355 20.2202C40.6884 20.2202 37.8911 21.3834 35.8121 23.4624C33.7071 25.5664 32.5688 28.3376 32.5688 31.2836C32.5688 34.2285 33.732 37.0258 35.8121 39.1048C37.9161 41.2076 40.6884 42.3469 43.6355 42.3469C46.5814 42.3469 49.3787 41.1838 51.4588 39.1048C53.5628 37.0008 54.7021 34.2285 54.7021 31.2836C54.7021 28.3376 53.5378 25.5414 51.4588 23.4624ZM48.2405 35.8864C45.7145 38.4114 41.5804 38.4114 39.0304 35.8626C36.4805 33.3127 36.4805 29.1796 39.0055 26.6547C40.2685 25.3927 41.9265 24.7743 43.5856 24.7743C45.2696 24.7743 46.9276 25.4177 48.2155 26.6796C50.7655 29.2295 50.7655 33.3626 48.2405 35.8864Z" fill="#193232"/>
<path d="M27.5917 19.7255H38.3371L42.8434 15.2452H27.5917V0L23.1603 4.45421V17.7203L16.5251 11.0872L13.3068 14.3056L28.5325 29.5258L31.7519 26.3086L27.5917 22.1756V19.7255Z" fill="#193232"/>
<path d="M43.437 31.2832C43.437 32.8674 44.725 34.1543 46.3092 34.1543C47.8934 34.1543 49.1814 32.8674 49.1814 31.2832C49.1814 29.699 47.8934 28.4121 46.3092 28.4121C44.725 28.4121 43.437 29.699 43.437 31.2832Z" fill="#193232"/>
<path d="M16.384 30.1865C16.4557 30.3612 16.5099 30.5402 16.5468 30.7257C16.5837 30.9102 16.6021 31.0968 16.6021 31.2856C16.6021 31.4734 16.5837 31.6611 16.5468 31.8455C16.5099 32.03 16.4557 32.2101 16.384 32.3837C16.3113 32.5584 16.2224 32.7234 16.1182 32.8807C16.013 33.0369 15.8947 33.1823 15.7612 33.3158C15.6278 33.4482 15.4824 33.5675 15.3261 33.6728C15.1688 33.777 15.0038 33.8659 14.8291 33.9376C14.6555 34.0103 14.4754 34.0645 14.2909 34.1014C14.1054 34.1383 13.9188 34.1567 13.73 34.1567C13.5412 34.1567 13.3545 34.1383 13.1701 34.1014C12.9845 34.0645 12.8055 34.0103 12.6308 33.9376C12.4572 33.8659 12.2912 33.777 12.1349 33.6728C11.9776 33.5675 11.8333 33.4482 11.6998 33.3158C11.5663 33.1823 11.447 33.0369 11.3428 32.8807C11.2376 32.7234 11.1486 32.5584 11.077 32.3837C11.0043 32.2101 10.95 32.03 10.9131 31.8455C10.8762 31.6611 10.8578 31.4734 10.8578 31.2856C10.8578 31.0968 10.8762 30.9102 10.9131 30.7257C10.95 30.5402 11.0043 30.3612 11.077 30.1865C11.1486 30.0129 11.2376 29.8468 11.3428 29.6906C11.447 29.5333 11.5663 29.3889 11.6998 29.2555C11.8333 29.122 11.9776 29.0027 12.1349 28.8985C12.2912 28.7932 12.4572 28.7053 12.6308 28.6326C12.8055 28.561 12.9845 28.5068 13.1701 28.4699C13.3545 28.433 13.5412 28.4146 13.73 28.4146C13.9188 28.4146 14.1054 28.433 14.2909 28.4699C14.4754 28.5068 14.6555 28.561 14.8291 28.6326C15.0038 28.7053 15.1688 28.7932 15.3261 28.8985C15.4824 29.0027 15.6278 29.122 15.7612 29.2555C15.8947 29.3889 16.013 29.5333 16.1182 29.6906C16.2224 29.8468 16.3113 30.0129 16.384 30.1865Z" fill="#193232"/>
</g>
<defs>
<clipPath id="clip0_3303_3000">
<rect width="55" height="60" fill="white"/>
</clipPath>
</defs>
</svg>
