<svg width="1154" height="1208" viewBox="0 0 1154 1208" fill="none" xmlns="http://www.w3.org/2000/svg">
<path d="M393.197 945.462L399.026 940.267L410.023 948.593L420.823 957.302L428.412 971.075L441.256 972.027L440.776 984.853L453.194 983.712L464.098 971.691L467.7 957.729L464.337 943.818L475.658 949.209L497.84 949.019L508.647 948.451L520.684 963.313L533.627 969.702L544.906 963.503L556.467 962.371L567.32 951.386L579.358 950.918L590.4 938.323L603.291 938.937L620.926 934.298L644.573 934.677L645.857 921.234H657.369L669.08 920.286L680.687 929.8L694.388 922.228L705.668 923.078L707.323 936.285L719.029 948.168L730.405 952.713L734.911 938.129L737.94 924.882L726.192 916.452L728.136 894.822L719.741 881.615L703.253 862.684L709.035 847.916L722.876 830.878L738.8 822.551L754.104 818.807L762.736 810.524L765 806.002M377.888 1020.87L387.03 1021.01L407.979 1029.81L411.018 1042.64L426.231 1050.02L437.98 1052.15L449.451 1033.74L461.867 1029.91L468.934 1050.07L487.275 1050.26L498.745 1055.13L509.741 1062.99L522.585 1063.65L533.628 1049.31L542.159 1035.3L558.458 1030.38L572.16 1029.24L585.431 1028.06L596.989 1028.87L611.449 1028.34L623.916 1021.2L641.731 1014.86L641.541 1027.59L643.533 1040.28L656.614 1044.96L658.936 1058.12L673.631 1072.6L686.951 1077.09L701.549 1077.28L712.544 1079.6L743.252 1084.01L758.802 1089.45L775.859 1087.51L786.903 1087.32L807.384 1093.19L810.601 1092.86L819.231 1094.23L830.601 1093.04L845.726 1096.36L858.423 1102.46L886.96 1103.18L898.52 1108L910.088 1098.58L922.127 1090.06L928.9 1076.24L940.559 1070.14L952.169 1064.79L967.242 1065.36L986.342 1062.95L999.424 1064.65L1009.95 1056.65L1021.32 1051.58L1033.84 1047.38L1046.11 1043.54L1046.87 1030.24L1057.58 1024.37L1069.47 1012.02L1079.99 1001.51L1092.03 1001.27L1092.27 988.066L1089.9 975.05L1089.85 961.893L1087.39 949.633L1101.75 934.767L1109.72 921.23L1105.36 906.89L1090.76 902.582L1091.14 888.761L1108.05 887.862L1119.81 895.009L1130.48 893.021L1145.78 888.524L1142.94 873.661L1145.41 859.61L1151 841.713L1141.85 829.787L1126.69 818.143C1124.92 812.915 1124.06 810.626 1122.5 806.002M377.888 1020.87L379 1006L377.888 993.002L373 983.71M377.888 1020.87L366 1023.5V1006L367.5 992.502L373 983.71M373 983.71L375.896 979.735L378.834 968.045L376.084 954.413M170.077 937.465L162.684 950.057L151.633 958.944L135.172 958.664L123.604 947.871L110.843 955.38L101.077 966.409L119.95 965.882L99.746 985.507L90.0709 996.532L74.5666 1006.18L68.0224 1023.28L51.4693 1028.99L49.8577 1044.86L42.8346 1060.68L31.1247 1068.24L17.5141 1087.2L8.26065 1102.5L15.0422 1116.38L4.32383 1133.58L2 1147.98L13.9096 1148.26L25.4813 1131.54L25.9603 1118.56L39.5206 1111.06L52.2346 1104.64L66.031 1104.17L84.0043 1111.35L81.5869 1125.17L83.341 1140.66L80.9264 1153.78L95.2967 1167.56L105.916 1186.8L119.626 1194.74L132.569 1190.08L145.421 1189.75L157.278 1183.9L172.174 1182.91L186.492 1190.7L199.344 1181.34L211.301 1174.69L222.445 1159.86L221.729 1143.27L237.142 1125.6L248.144 1112.2L258.346 1126.22L256.402 1141.71L268.02 1151.64L282.485 1165.89L294.811 1166.46L292.396 1182.1L303.679 1191.36L305.908 1205L319.856 1204.24L316.531 1190.79L316.299 1176.77L324.361 1163.04L336.071 1150.21L345.513 1134.25L344.707 1121.32L345.177 1107.45L357.134 1110.06L363.914 1123.51L373.779 1136.1L388.339 1137.24L400.479 1129.45L412.097 1125.07L421.962 1138.43L435.242 1146.55L432.87 1132.92L437.613 1120.37L425.519 1113.76L426.226 1100.56L433.439 1086.82L444.248 1086.92L455.018 1098.28L466.4 1097.09L471 1086.59L464.354 1072.71L466.446 1059.92L470.242 1049.9M338.185 923.584L334.489 924.635L321.083 923.352M313.409 922.593L301.706 921.466L289.864 922.167L284.132 908.863L273.282 909.989L262.291 915.247L260.023 922.679L269.824 933.804L255.422 936.315L244.527 929.114L233.393 930.779L220.175 937.739L209.185 935.277L196.11 933.994L183.839 937.734L173.884 934.798L166.401 932.621L163.795 917.186L163.463 904.498L168.632 887.406L172.28 876.422L169.391 858.72L178.202 843.196L185.308 826.435L188.434 813.316L193.408 798.828L194.877 787.086L206.204 768.527L212.642 760.915L227.333 751.2L237.514 730.036L230.549 726.628L207.384 717.916L194.402 717.015L183.412 713.563L172.804 707.352L161.524 695.468L148.876 704.795L136.089 702.479L124.246 701.813L114.202 688.09L103.306 696.85L92.6952 692.305L87.0997 679.285L81.1779 665.129L73.9767 651.447L60.1911 647.848L59.2425 647.281L58.3469 635.682L61.801 621.904L70.8979 607.132L77.3401 596.773L67.0602 594.306L57.0174 586.683L47.6847 573.615L41.0053 558.328L42.0474 545.544L42.996 544.549L45.648 531.529L56.3604 525.566L67.3462 518.462L66.1604 505.253L64.4599 491.711L51.1011 483.616L52.0484 470.69L45.037 457.245L35.2341 449.345L33.3815 444.373L42.8091 431.306L34.4711 415.587L24 404.082L36.7924 399.918L45.03 385.714L49.1509 372.552L59.1058 360.007L64.6482 337.764L55.7884 323.372L52.5673 313.996L38.3018 298.278L43.6559 285.638L53.94 277.354L66.1576 281.472L77.149 288.338L90.0349 284.124L104.346 278.016L115.338 276.88L119.176 262.913L117.232 247.337L128.317 240.993L139.645 231.38L143.714 218.46L145.657 204.729L130.828 197.391L118.796 193.982L114.484 180.251L122.822 165.622L136.419 167.564L148.362 160.363L150.921 138.963L160.775 122.819L164.376 107.525L163.19 90.4423L165.702 75.483L163.19 71.6951L166.412 69.5648L167.081 64.4511L170.772 60.4736L174.847 61.0884L179.584 63.9771L173.946 59.184L153.295 57.6783L149.265 40.3504L151.733 33.2486L158.412 30.6917L160.449 25.6672L157.228 18.2391L163.624 12.7949L168.929 8.24861L176.178 5.73912L190.149 4.69769L194.08 7.35913L207.538 4.99185L234.727 2L241.885 4.31989L241.127 9.72641L243.496 15.2654L247.144 20.1895L249.274 25.2085L253.254 30.8896L248.706 34.5354L245.106 34.7236L245.007 40.8314L249.228 43.1512L253.442 45.8991L257.753 50.5849" stroke="#D8D8D8" stroke-width="1.5" stroke-linecap="round" stroke-linejoin="round" stroke-dasharray="0.1 4" vector-effect="non-scaling-stroke"/>
<g opacity="0.4">
<path d="M392.764 946.137L380.334 939.963L366.313 929.625L352.616 925.696L337.79 912.973L324 906.002L337.038 917.838L338.643 923.393L338.633 923.476L340.751 930.819L358.589 942.7L370.032 955.002L376.762 954.067L381.657 953.366L391.87 947.05L393 946.348L392.76 946.209L392.764 946.137Z" fill="black"/>
<path d="M321.355 923.583L326 919.548L314.049 917.002V922.814L314.045 922.893L314 930.002L321.351 923.663L321.355 923.583Z" fill="black"/>
</g>
<path d="M244.723 1044.47C244.723 1046.53 245.953 1048.1 248.023 1048.1C249.823 1048.1 251.003 1047.02 251.213 1045.27H250.393C250.233 1046.62 249.403 1047.4 248.023 1047.4C246.383 1047.4 245.543 1046.18 245.543 1044.47C245.543 1042.77 246.383 1041.55 248.023 1041.55C249.403 1041.55 250.233 1042.32 250.393 1043.67H251.213C251.003 1041.93 249.823 1040.85 248.023 1040.85C245.953 1040.85 244.723 1042.42 244.723 1044.47Z" fill="#D8D8D8"/>
<path d="M262.361 1040.95V1044.17H258.201V1040.95H257.381V1048H258.201V1044.87H262.361V1048H263.171V1040.95H262.361Z" fill="#D8D8D8"/>
<path d="M477.186 852.952H474.946V860.002H477.186C478.896 860.002 480.716 859.512 480.716 856.472C480.716 853.442 478.896 852.952 477.186 852.952ZM477.186 859.302H475.766V853.652H477.186C478.436 853.652 479.896 853.872 479.896 856.472C479.896 859.082 478.436 859.302 477.186 859.302Z" fill="#D8D8D8"/>
<path d="M486.879 860.002H491.249V859.302H487.699V856.822H490.749V856.122H487.699V853.652H491.249V852.952H486.879V860.002Z" fill="#D8D8D8"/>
<path d="M363.73 920.002H366.05C367.76 920.002 368.83 919.552 368.83 918.132C368.83 916.872 367.98 916.432 366.9 916.412V916.172C367.63 916.122 368.31 915.702 368.31 914.682C368.31 913.292 367.32 912.952 365.6 912.952H363.73V920.002ZM364.55 915.982V913.652H365.63C366.78 913.652 367.49 913.722 367.49 914.812C367.49 915.812 366.78 915.982 365.63 915.982H364.55ZM364.55 919.302V916.682H366.08C367.28 916.682 368.01 916.962 368.01 917.992C368.01 919.102 367.28 919.302 366.08 919.302H364.55Z" fill="#D8D8D8"/>
<path d="M370.77 917.512C370.77 918.962 371.81 920.102 373.4 920.102C374.98 920.102 376.01 918.962 376.01 917.512C376.01 916.072 374.98 914.932 373.4 914.932C371.81 914.932 370.77 916.072 370.77 917.512ZM371.59 917.512C371.59 916.482 372.22 915.632 373.4 915.632C374.57 915.632 375.2 916.482 375.2 917.512C375.2 918.552 374.57 919.402 373.4 919.402C372.22 919.402 371.59 918.552 371.59 917.512Z" fill="#D8D8D8"/>
<path d="M383.252 920.002V912.652H382.432V915.762L382.572 916.332H382.332C382.122 915.552 381.452 914.932 380.322 914.932C378.882 914.932 377.952 916.042 377.952 917.512C377.952 918.992 378.882 920.102 380.322 920.102C381.452 920.102 382.122 919.482 382.332 918.712H382.572L382.432 919.272V920.002H383.252ZM382.432 917.512C382.432 918.842 381.592 919.402 380.562 919.402C379.532 919.402 378.772 918.842 378.772 917.512C378.772 916.192 379.532 915.632 380.562 915.632C381.592 915.632 382.432 916.192 382.432 917.512Z" fill="#D8D8D8"/>
<path d="M385.456 917.452C385.456 918.882 386.206 920.102 387.986 920.102C389.566 920.102 390.166 919.032 390.356 918.262H389.536C389.356 919.022 388.806 919.422 387.986 919.422C386.756 919.422 386.306 918.612 386.256 917.672H390.186V917.352C390.186 915.822 389.266 914.932 387.866 914.932C386.456 914.932 385.456 915.852 385.456 917.452ZM386.256 917.052C386.256 916.252 386.886 915.622 387.866 915.622C388.856 915.622 389.386 916.252 389.386 917.052H386.256Z" fill="#D8D8D8"/>
<path d="M395.096 915.632C395.946 915.632 396.356 916.032 396.356 917.072V920.002H397.166V916.962C397.166 915.582 396.436 914.932 395.316 914.932C394.236 914.932 393.606 915.562 393.406 916.462H393.176L393.306 915.892V915.032H392.486V920.002H393.306V917.802C393.306 916.462 394.046 915.632 395.096 915.632Z" fill="#D8D8D8"/>
<path d="M403.422 918.712C403.422 917.642 402.362 917.422 401.382 917.102C400.582 916.842 400.242 916.692 400.242 916.212C400.242 915.762 400.682 915.602 401.232 915.602C402.022 915.602 402.432 915.932 402.432 916.602H403.252C403.252 915.782 402.782 914.932 401.232 914.932C400.092 914.932 399.422 915.452 399.422 916.242C399.422 917.142 400.182 917.432 401.122 917.732C401.932 917.982 402.602 918.092 402.602 918.742C402.602 919.252 402.242 919.432 401.472 919.432C400.512 919.432 400.012 919.032 400.012 918.172H399.192C399.192 919.352 399.852 920.102 401.462 920.102C402.952 920.102 403.422 919.462 403.422 918.712Z" fill="#D8D8D8"/>
<path d="M405.262 917.452C405.262 918.882 406.012 920.102 407.792 920.102C409.372 920.102 409.972 919.032 410.162 918.262H409.342C409.162 919.022 408.612 919.422 407.792 919.422C406.562 919.422 406.112 918.612 406.062 917.672H409.992V917.352C409.992 915.822 409.072 914.932 407.672 914.932C406.262 914.932 405.262 915.852 405.262 917.452ZM406.062 917.052C406.062 916.252 406.692 915.622 407.672 915.622C408.662 915.622 409.192 916.252 409.192 917.052H406.062Z" fill="#D8D8D8"/>
<path d="M412.093 917.452C412.093 918.882 412.843 920.102 414.623 920.102C416.203 920.102 416.803 919.032 416.993 918.262H416.173C415.993 919.022 415.443 919.422 414.623 919.422C413.393 919.422 412.943 918.612 412.893 917.672H416.823V917.352C416.823 915.822 415.903 914.932 414.503 914.932C413.093 914.932 412.093 915.852 412.093 917.452ZM412.893 917.052C412.893 916.252 413.523 915.622 414.503 915.622C415.493 915.622 416.023 916.252 416.023 917.052H412.893Z" fill="#D8D8D8"/>
<path d="M338.521 954.222C338.521 952.752 336.921 952.372 335.541 951.942C334.381 951.582 333.761 951.312 333.761 950.572C333.761 949.792 334.471 949.552 335.441 949.552C336.521 949.552 337.411 950.072 337.411 951.272H338.231C338.231 950.122 337.521 948.852 335.441 948.852C333.701 948.852 332.941 949.512 332.941 950.592C332.941 951.842 333.951 952.222 335.341 952.642C336.461 952.972 337.701 953.192 337.701 954.262C337.701 955.112 337.011 955.402 335.811 955.402C334.331 955.402 333.441 955.032 333.441 953.362H332.621C332.621 955.012 333.351 956.102 335.811 956.102C337.891 956.102 338.521 955.272 338.521 954.222Z" fill="#D8D8D8"/>
<path d="M340.45 953.512C340.45 954.952 341.38 956.102 342.99 956.102C343.95 956.102 345.18 955.562 345.31 954.122H344.48C344.34 955.072 343.71 955.402 342.99 955.402C341.81 955.402 341.27 954.542 341.27 953.512C341.27 952.492 341.81 951.632 342.99 951.632C343.71 951.632 344.34 951.962 344.48 952.912H345.31C345.18 951.472 343.95 950.932 342.99 950.932C341.38 950.932 340.45 952.082 340.45 953.512Z" fill="#D8D8D8"/>
<path d="M350.33 950.932C349.25 950.932 348.62 951.562 348.42 952.462H348.19L348.32 951.892V948.652H347.5V956.002H348.32V953.802C348.32 952.462 349.06 951.632 350.11 951.632C350.96 951.632 351.37 952.032 351.37 953.072V956.002H352.18V952.962C352.18 951.582 351.45 950.932 350.33 950.932Z" fill="#D8D8D8"/>
<path d="M354.225 956.002H357.825V955.302H356.435V949.242C356.435 948.772 356.215 948.512 355.755 948.552L354.595 948.652V949.352L355.625 949.262V955.302H354.225V956.002Z" fill="#D8D8D8"/>
<path d="M359.387 953.512C359.387 954.962 360.427 956.102 362.017 956.102C363.597 956.102 364.627 954.962 364.627 953.512C364.627 952.072 363.597 950.932 362.017 950.932C360.427 950.932 359.387 952.072 359.387 953.512ZM360.207 953.512C360.207 952.482 360.837 951.632 362.017 951.632C363.187 951.632 363.817 952.482 363.817 953.512C363.817 954.552 363.187 955.402 362.017 955.402C360.837 955.402 360.207 954.552 360.207 953.512Z" fill="#D8D8D8"/>
<path d="M370.699 954.712C370.699 953.642 369.639 953.422 368.659 953.102C367.859 952.842 367.519 952.692 367.519 952.212C367.519 951.762 367.959 951.602 368.509 951.602C369.299 951.602 369.709 951.932 369.709 952.602H370.529C370.529 951.782 370.059 950.932 368.509 950.932C367.369 950.932 366.699 951.452 366.699 952.242C366.699 953.142 367.459 953.432 368.399 953.732C369.209 953.982 369.879 954.092 369.879 954.742C369.879 955.252 369.519 955.432 368.749 955.432C367.789 955.432 367.289 955.032 367.289 954.172H366.469C366.469 955.352 367.129 956.102 368.739 956.102C370.229 956.102 370.699 955.462 370.699 954.712Z" fill="#D8D8D8"/>
<path d="M376.67 954.712C376.67 953.642 375.61 953.422 374.63 953.102C373.83 952.842 373.49 952.692 373.49 952.212C373.49 951.762 373.93 951.602 374.48 951.602C375.27 951.602 375.68 951.932 375.68 952.602H376.5C376.5 951.782 376.03 950.932 374.48 950.932C373.34 950.932 372.67 951.452 372.67 952.242C372.67 953.142 373.43 953.432 374.37 953.732C375.18 953.982 375.85 954.092 375.85 954.742C375.85 955.252 375.49 955.432 374.72 955.432C373.76 955.432 373.26 955.032 373.26 954.172H372.44C372.44 955.352 373.1 956.102 374.71 956.102C376.2 956.102 376.67 955.462 376.67 954.712Z" fill="#D8D8D8"/>
<path d="M309.322 966.002H310.142V963.172L313.472 962.972V962.262L310.142 962.462V959.652H313.942V958.952H309.322V966.002Z" fill="#D8D8D8"/>
<path d="M315.703 966.002H316.523V961.642L319.153 961.732V961.032L316.393 960.942C315.923 960.922 315.703 961.152 315.703 961.622V966.002Z" fill="#D8D8D8"/>
<path d="M320.565 963.452C320.565 964.882 321.315 966.102 323.095 966.102C324.675 966.102 325.275 965.032 325.465 964.262H324.645C324.465 965.022 323.915 965.422 323.095 965.422C321.865 965.422 321.415 964.612 321.365 963.672H325.295V963.352C325.295 961.822 324.375 960.932 322.975 960.932C321.565 960.932 320.565 961.852 320.565 963.452ZM321.365 963.052C321.365 962.252 321.995 961.622 322.975 961.622C323.965 961.622 324.495 962.252 324.495 963.052H321.365Z" fill="#D8D8D8"/>
<path d="M329.575 965.402C328.715 965.402 328.315 965.002 328.315 963.962V961.032H327.495V964.072C327.495 965.452 328.225 966.102 329.355 966.102C330.435 966.102 331.065 965.472 331.265 964.572H331.495L331.365 965.142V966.002H332.175V961.032H331.365V963.242C331.365 964.572 330.625 965.402 329.575 965.402Z" fill="#D8D8D8"/>
<path d="M339.594 966.002V958.652H338.774V961.762L338.914 962.332H338.674C338.464 961.552 337.794 960.932 336.664 960.932C335.224 960.932 334.294 962.042 334.294 963.512C334.294 964.992 335.224 966.102 336.664 966.102C337.794 966.102 338.464 965.482 338.674 964.712H338.914L338.774 965.272V966.002H339.594ZM338.774 963.512C338.774 964.842 337.934 965.402 336.904 965.402C335.874 965.402 335.114 964.842 335.114 963.512C335.114 962.192 335.874 961.632 336.904 961.632C337.934 961.632 338.774 962.192 338.774 963.512Z" fill="#D8D8D8"/>
<path d="M341.798 963.452C341.798 964.882 342.548 966.102 344.328 966.102C345.908 966.102 346.508 965.032 346.698 964.262H345.878C345.698 965.022 345.148 965.422 344.328 965.422C343.098 965.422 342.648 964.612 342.598 963.672H346.528V963.352C346.528 961.822 345.608 960.932 344.208 960.932C342.798 960.932 341.798 961.852 341.798 963.452ZM342.598 963.052C342.598 962.252 343.228 961.622 344.208 961.622C345.198 961.622 345.728 962.252 345.728 963.052H342.598Z" fill="#D8D8D8"/>
<path d="M351.438 961.632C352.288 961.632 352.698 962.032 352.698 963.072V966.002H353.508V962.962C353.508 961.582 352.778 960.932 351.658 960.932C350.578 960.932 349.948 961.562 349.748 962.462H349.518L349.648 961.892V961.032H348.828V966.002H349.648V963.802C349.648 962.462 350.388 961.632 351.438 961.632Z" fill="#D8D8D8"/>
<path d="M358.322 959.352H359.222V958.652H358.362C357.172 958.652 356.682 959.282 356.682 960.272V961.032H355.582V961.732H356.682V965.302H355.582V966.002H358.942V965.302H357.492V961.732H358.942V961.032H357.492V960.292C357.492 959.642 357.692 959.352 358.322 959.352Z" fill="#D8D8D8"/>
<path d="M360.784 963.452C360.784 964.882 361.534 966.102 363.314 966.102C364.894 966.102 365.494 965.032 365.684 964.262H364.864C364.684 965.022 364.134 965.422 363.314 965.422C362.084 965.422 361.634 964.612 361.584 963.672H365.514V963.352C365.514 961.822 364.594 960.932 363.194 960.932C361.784 960.932 360.784 961.852 360.784 963.452ZM361.584 963.052C361.584 962.252 362.214 961.622 363.194 961.622C364.184 961.622 364.714 962.252 364.714 963.052H361.584Z" fill="#D8D8D8"/>
<path d="M367.172 966.002H370.772V965.302H369.382V959.242C369.382 958.772 369.162 958.512 368.702 958.552L367.542 958.652V959.352L368.572 959.262V965.302H367.172V966.002Z" fill="#D8D8D8"/>
<path d="M376.67 964.712C376.67 963.642 375.61 963.422 374.63 963.102C373.83 962.842 373.49 962.692 373.49 962.212C373.49 961.762 373.93 961.602 374.48 961.602C375.27 961.602 375.68 961.932 375.68 962.602H376.5C376.5 961.782 376.03 960.932 374.48 960.932C373.34 960.932 372.67 961.452 372.67 962.242C372.67 963.142 373.43 963.432 374.37 963.732C375.18 963.982 375.85 964.092 375.85 964.742C375.85 965.252 375.49 965.432 374.72 965.432C373.76 965.432 373.26 965.032 373.26 964.172H372.44C372.44 965.352 373.1 966.102 374.71 966.102C376.2 966.102 376.67 965.462 376.67 964.712Z" fill="#D8D8D8"/>
<path d="M906.156 919.002H906.966L904.696 911.952H903.016L900.736 919.002H901.556L902.436 916.242H905.266L906.156 919.002ZM902.666 915.542L903.736 912.182H903.966L905.046 915.542H902.666Z" fill="#D8D8D8"/>
<path d="M917.152 911.952H911.442V912.652H913.902V919.002H914.712V912.652H917.152V911.952Z" fill="#D8D8D8"/>
<circle cx="313" cy="941.002" r="3" fill="#D8D8D8"/>
<circle opacity="0.1" cx="313" cy="941.002" r="41" fill="#D8D8D8"/>
</svg>
