<svg viewBox="0 0 217 47" xmlns="http://www.w3.org/2000/svg" fill="#d8d8d8" role="img" aria-label="Circle">
  <title>Circle</title>
  <style>
    text { font-family: Grafier, Georgia, serif; font-size: 13px; letter-spacing: 0.24em; }
  </style>
  <path d="M48.7102 36.1163V27.9639H49.9455V36.1163H50.6691L56.7219 30.0635L56.8966 30.2382L50.1534 36.9814H59.0862V37.2285H50.1204L56.8968 44.0049L56.7221 44.1796L50.6352 38.0927H49.9455V46.2457H48.7102V38.0927H48.0538L41.967 44.1796L41.7923 44.0049L48.5687 37.2285H39.5691V36.9814H48.5359L41.7927 30.2382L41.9674 30.0635L48.0201 36.1163H48.7102Z"/>
  <path d="M68.2273 36.1163V27.9639H69.4626V36.1163H70.1865L76.2392 30.0635L76.4139 30.2382L69.6707 36.9814L87.5703 36.9814L80.8271 30.2382L81.0018 30.0635L87.0545 36.1163H87.7442V27.9639H88.9794V36.1163H89.7036L95.7563 30.0635L95.931 30.2382L89.1878 36.9814L107.087 36.9814L100.344 30.2382L100.519 30.0635L106.571 36.1163H107.261V27.9639H108.497V36.1163H109.221L115.273 30.0635L115.448 30.2382L108.705 36.9814H117.637V37.2285H108.672L115.448 44.0049L115.273 44.1796L109.186 38.0927H108.497V46.2457H107.261V38.0927H106.605L100.518 44.1796L100.344 44.0049L107.12 37.2285L89.1548 37.2285L95.9312 44.0049L95.7565 44.1796L89.6696 38.0927H88.9794V46.2457H87.7442V38.0927H87.0883L81.0014 44.1796L80.8267 44.0049L87.6031 37.2285L69.6372 37.2285L76.4136 44.0049L76.2389 44.1796L70.152 38.0927H69.4626V46.2457H68.2273V38.0927H67.5712L61.4843 44.1796L61.3096 44.0049L68.086 37.2285L59.0862 37.2285V36.9814L68.0527 36.9814L61.3095 30.2382L61.4842 30.0635L67.537 36.1163H68.2273Z"/>
  <text x="130" y="38.2">Circle</text>
</svg>
