<svg width="377" height="337" viewBox="0 0 377 337" fill="none" xmlns="http://www.w3.org/2000/svg">
<rect width="377" height="337" fill="#1F3F3E"/>
<path d="M268.046 172.543L271.699 169.288L278.592 174.505L285.36 179.962L290.117 188.591L298.167 189.188L297.866 197.224L305.649 196.509L312.483 188.977L314.741 180.229L312.633 171.513L319.728 174.891L333.631 174.772L340.404 174.416L347.948 183.728L356.061 187.731L363.13 183.847L370.375 183.138L375.303 178.152M258.451 219.788L264.181 219.878L277.31 225.396L279.215 233.432L288.75 238.056L296.114 239.39L303.303 227.857L311.085 225.452L315.514 238.086L327.01 238.205L334.198 241.258L341.09 246.183L349.14 246.597L356.061 237.612L361.408 228.834L371.623 225.75L375.212 225.452M258.451 219.788L259.148 210.475L258.451 202.33L255.387 196.508M258.451 219.788L251 221.44V210.475L251.94 202.017L255.387 196.508M255.387 196.508L257.202 194.018L259.044 186.693L257.32 178.152M128.362 167.385L123.727 175.292L116.8 180.873L106.481 180.697L99.2296 173.92L91.2299 178.635L85.1079 185.56L96.9386 185.229L84.2736 197.553L78.2086 204.476L68.4895 210.535L64.3872 221.276L54.0106 224.855L53.0004 234.823L48.5978 244.759L41.2573 249.504L32.7252 261.411L26.9246 271.019L31.1757 279.732L24.4567 290.535L23 299.576L30.4657 299.755L37.7196 289.255L38.0199 281.106L46.5204 276.392L54.4904 272.363L63.1388 272.066L74.4057 276.574L72.8903 285.255L73.9899 294.982L72.4762 303.218L81.4845 311.875L88.1413 323.957L96.7355 328.94L104.849 326.015L112.906 325.811L120.338 322.137L129.676 321.51L138.651 326.404L146.708 320.525L154.204 316.351L161.19 307.037L160.74 296.623L170.403 285.525L177.299 277.108L183.694 285.911L182.476 295.639L189.759 301.875L198.826 310.827L206.553 311.185L205.039 321.001L212.112 326.82L213.509 335.385L222.253 334.908L220.169 326.463L220.023 317.66L225.077 309.037L232.418 300.98L238.337 290.954L237.832 282.837L238.126 274.124L245.621 275.765L249.871 284.209L256.056 292.117L265.183 292.833L272.793 287.939L280.076 285.194L286.26 293.579L294.584 298.683L293.098 290.121L296.071 282.241L288.49 278.092L288.933 269.798L293.454 261.173L300.23 261.233L306.982 268.368L314.116 267.621L317 261.027L312.834 252.314L314.145 244.283L316.525 237.987M233.679 158.516L231.365 159.174L222.973 158.371M218.169 157.894L210.843 157.189L203.43 157.628L199.842 149.291L193.05 149.997L186.17 153.292L184.75 157.949L190.885 164.92L181.87 166.493L175.049 161.981L168.08 163.024L159.805 167.385L152.926 165.842L144.74 165.039L137.059 167.383L130.827 165.543L126.143 164.178L124.512 154.507L124.304 146.556L127.539 135.846L129.823 128.964L128.014 117.871L133.53 108.143L137.978 97.6411L139.935 89.4206L143.049 80.3422L143.968 72.9848L151.059 61.3555L155.09 56.5858L164.286 50.4977L170.659 37.2366L166.299 35.1007L151.798 29.6416L143.671 29.0772L136.792 26.9142L130.151 23.0224L123.09 15.5759L115.172 21.4202L107.167 19.9692L99.754 19.5516L93.4664 10.9528L86.6452 16.4417L80.003 13.5937L76.5003 5.43524L74.6467 1" stroke="#D8D8D8" stroke-width="1.5" stroke-linecap="round" stroke-linejoin="round" stroke-dasharray="0.1 4" vector-effect="non-scaling-stroke"/>
<g opacity="0.4">
<path d="M267.853 172.776L260.107 168.871L251.369 162.33L242.833 159.844L233.594 151.795L225 147.385L233.125 154.873L234.125 158.387L234.119 158.44L235.439 163.085L246.556 170.602L253.687 178.385L257.881 177.793L260.931 177.35L267.296 173.354L268 172.91L267.851 172.822L267.853 172.776Z" fill="black"/>
<path d="M223.29 158.435L226 155.952L219.029 154.385V157.961L219.026 158.01L219 162.385L223.288 158.484L223.29 158.435Z" fill="black"/>
</g>
<path d="M165.223 232.854C165.223 234.914 166.453 236.484 168.523 236.484C170.323 236.484 171.503 235.404 171.713 233.654H170.893C170.733 235.004 169.903 235.784 168.523 235.784C166.883 235.784 166.043 234.564 166.043 232.854C166.043 231.154 166.883 229.934 168.523 229.934C169.903 229.934 170.733 230.704 170.893 232.054H171.713C171.503 230.314 170.323 229.234 168.523 229.234C166.453 229.234 165.223 230.804 165.223 232.854Z" fill="#D8D8D8"/>
<path d="M182.861 229.334V232.554H178.701V229.334H177.881V236.384H178.701V233.254H182.861V236.384H183.671V229.334H182.861Z" fill="#D8D8D8"/>
<path d="M242.186 87.335H239.946V94.385H242.186C243.896 94.385 245.716 93.895 245.716 90.855C245.716 87.825 243.896 87.335 242.186 87.335ZM242.186 93.685H240.766V88.035H242.186C243.436 88.035 244.896 88.255 244.896 90.855C244.896 93.465 243.436 93.685 242.186 93.685Z" fill="#D8D8D8"/>
<path d="M251.879 94.385H256.249V93.685H252.699V91.205H255.749V90.505H252.699V88.035H256.249V87.335H251.879V94.385Z" fill="#D8D8D8"/>
<path d="M250.73 160.385H253.05C254.76 160.385 255.83 159.935 255.83 158.515C255.83 157.255 254.98 156.815 253.9 156.795V156.555C254.63 156.505 255.31 156.085 255.31 155.065C255.31 153.675 254.32 153.335 252.6 153.335H250.73V160.385ZM251.55 156.365V154.035H252.63C253.78 154.035 254.49 154.105 254.49 155.195C254.49 156.195 253.78 156.365 252.63 156.365H251.55ZM251.55 159.685V157.065H253.08C254.28 157.065 255.01 157.345 255.01 158.375C255.01 159.485 254.28 159.685 253.08 159.685H251.55Z" fill="#D8D8D8"/>
<path d="M257.77 157.895C257.77 159.345 258.81 160.485 260.4 160.485C261.98 160.485 263.01 159.345 263.01 157.895C263.01 156.455 261.98 155.315 260.4 155.315C258.81 155.315 257.77 156.455 257.77 157.895ZM258.59 157.895C258.59 156.865 259.22 156.015 260.4 156.015C261.57 156.015 262.2 156.865 262.2 157.895C262.2 158.935 261.57 159.785 260.4 159.785C259.22 159.785 258.59 158.935 258.59 157.895Z" fill="#D8D8D8"/>
<path d="M270.252 160.385V153.035H269.432V156.145L269.572 156.715H269.332C269.122 155.935 268.452 155.315 267.322 155.315C265.882 155.315 264.952 156.425 264.952 157.895C264.952 159.375 265.882 160.485 267.322 160.485C268.452 160.485 269.122 159.865 269.332 159.095H269.572L269.432 159.655V160.385H270.252ZM269.432 157.895C269.432 159.225 268.592 159.785 267.562 159.785C266.532 159.785 265.772 159.225 265.772 157.895C265.772 156.575 266.532 156.015 267.562 156.015C268.592 156.015 269.432 156.575 269.432 157.895Z" fill="#D8D8D8"/>
<path d="M272.456 157.835C272.456 159.265 273.206 160.485 274.986 160.485C276.566 160.485 277.166 159.415 277.356 158.645H276.536C276.356 159.405 275.806 159.805 274.986 159.805C273.756 159.805 273.306 158.995 273.256 158.055H277.186V157.735C277.186 156.205 276.266 155.315 274.866 155.315C273.456 155.315 272.456 156.235 272.456 157.835ZM273.256 157.435C273.256 156.635 273.886 156.005 274.866 156.005C275.856 156.005 276.386 156.635 276.386 157.435H273.256Z" fill="#D8D8D8"/>
<path d="M282.096 156.015C282.946 156.015 283.356 156.415 283.356 157.455V160.385H284.166V157.345C284.166 155.965 283.436 155.315 282.316 155.315C281.236 155.315 280.606 155.945 280.406 156.845H280.176L280.306 156.275V155.415H279.486V160.385H280.306V158.185C280.306 156.845 281.046 156.015 282.096 156.015Z" fill="#D8D8D8"/>
<path d="M290.422 159.095C290.422 158.025 289.362 157.805 288.382 157.485C287.582 157.225 287.242 157.075 287.242 156.595C287.242 156.145 287.682 155.985 288.232 155.985C289.022 155.985 289.432 156.315 289.432 156.985H290.252C290.252 156.165 289.782 155.315 288.232 155.315C287.092 155.315 286.422 155.835 286.422 156.625C286.422 157.525 287.182 157.815 288.122 158.115C288.932 158.365 289.602 158.475 289.602 159.125C289.602 159.635 289.242 159.815 288.472 159.815C287.512 159.815 287.012 159.415 287.012 158.555H286.192C286.192 159.735 286.852 160.485 288.462 160.485C289.952 160.485 290.422 159.845 290.422 159.095Z" fill="#D8D8D8"/>
<path d="M292.262 157.835C292.262 159.265 293.012 160.485 294.792 160.485C296.372 160.485 296.972 159.415 297.162 158.645H296.342C296.162 159.405 295.612 159.805 294.792 159.805C293.562 159.805 293.112 158.995 293.062 158.055H296.992V157.735C296.992 156.205 296.072 155.315 294.672 155.315C293.262 155.315 292.262 156.235 292.262 157.835ZM293.062 157.435C293.062 156.635 293.692 156.005 294.672 156.005C295.662 156.005 296.192 156.635 296.192 157.435H293.062Z" fill="#D8D8D8"/>
<path d="M299.092 157.835C299.092 159.265 299.842 160.485 301.622 160.485C303.202 160.485 303.802 159.415 303.992 158.645H303.172C302.992 159.405 302.442 159.805 301.622 159.805C300.392 159.805 299.942 158.995 299.892 158.055H303.822V157.735C303.822 156.205 302.902 155.315 301.502 155.315C300.092 155.315 299.092 156.235 299.092 157.835ZM299.892 157.435C299.892 156.635 300.522 156.005 301.502 156.005C302.492 156.005 303.022 156.635 303.022 157.435H299.892Z" fill="#D8D8D8"/>
<path d="M176.521 180.605C176.521 179.135 174.921 178.755 173.541 178.325C172.381 177.965 171.761 177.695 171.761 176.955C171.761 176.175 172.471 175.935 173.441 175.935C174.521 175.935 175.411 176.455 175.411 177.655H176.231C176.231 176.505 175.521 175.235 173.441 175.235C171.701 175.235 170.941 175.895 170.941 176.975C170.941 178.225 171.951 178.605 173.341 179.025C174.461 179.355 175.701 179.575 175.701 180.645C175.701 181.495 175.011 181.785 173.811 181.785C172.331 181.785 171.441 181.415 171.441 179.745H170.621C170.621 181.395 171.351 182.485 173.811 182.485C175.891 182.485 176.521 181.655 176.521 180.605Z" fill="#D8D8D8"/>
<path d="M178.45 179.895C178.45 181.335 179.38 182.485 180.99 182.485C181.95 182.485 183.18 181.945 183.31 180.505H182.48C182.34 181.455 181.71 181.785 180.99 181.785C179.81 181.785 179.27 180.925 179.27 179.895C179.27 178.875 179.81 178.015 180.99 178.015C181.71 178.015 182.34 178.345 182.48 179.295H183.31C183.18 177.855 181.95 177.315 180.99 177.315C179.38 177.315 178.45 178.465 178.45 179.895Z" fill="#D8D8D8"/>
<path d="M188.33 177.315C187.25 177.315 186.62 177.945 186.42 178.845H186.19L186.32 178.275V175.035H185.5V182.385H186.32V180.185C186.32 178.845 187.06 178.015 188.11 178.015C188.96 178.015 189.37 178.415 189.37 179.455V182.385H190.18V179.345C190.18 177.965 189.45 177.315 188.33 177.315Z" fill="#D8D8D8"/>
<path d="M192.225 182.385H195.825V181.685H194.435V175.625C194.435 175.155 194.215 174.895 193.755 174.935L192.595 175.035V175.735L193.625 175.645V181.685H192.225V182.385Z" fill="#D8D8D8"/>
<path d="M197.387 179.895C197.387 181.345 198.427 182.485 200.017 182.485C201.597 182.485 202.627 181.345 202.627 179.895C202.627 178.455 201.597 177.315 200.017 177.315C198.427 177.315 197.387 178.455 197.387 179.895ZM198.207 179.895C198.207 178.865 198.837 178.015 200.017 178.015C201.187 178.015 201.817 178.865 201.817 179.895C201.817 180.935 201.187 181.785 200.017 181.785C198.837 181.785 198.207 180.935 198.207 179.895Z" fill="#D8D8D8"/>
<path d="M208.699 181.095C208.699 180.025 207.639 179.805 206.659 179.485C205.859 179.225 205.519 179.075 205.519 178.595C205.519 178.145 205.959 177.985 206.509 177.985C207.299 177.985 207.709 178.315 207.709 178.985H208.529C208.529 178.165 208.059 177.315 206.509 177.315C205.369 177.315 204.699 177.835 204.699 178.625C204.699 179.525 205.459 179.815 206.399 180.115C207.209 180.365 207.879 180.475 207.879 181.125C207.879 181.635 207.519 181.815 206.749 181.815C205.789 181.815 205.289 181.415 205.289 180.555H204.469C204.469 181.735 205.129 182.485 206.739 182.485C208.229 182.485 208.699 181.845 208.699 181.095Z" fill="#D8D8D8"/>
<path d="M214.67 181.095C214.67 180.025 213.61 179.805 212.63 179.485C211.83 179.225 211.49 179.075 211.49 178.595C211.49 178.145 211.93 177.985 212.48 177.985C213.27 177.985 213.68 178.315 213.68 178.985H214.5C214.5 178.165 214.03 177.315 212.48 177.315C211.34 177.315 210.67 177.835 210.67 178.625C210.67 179.525 211.43 179.815 212.37 180.115C213.18 180.365 213.85 180.475 213.85 181.125C213.85 181.635 213.49 181.815 212.72 181.815C211.76 181.815 211.26 181.415 211.26 180.555H210.44C210.44 181.735 211.1 182.485 212.71 182.485C214.2 182.485 214.67 181.845 214.67 181.095Z" fill="#D8D8D8"/>
<path d="M147.322 192.385H148.142V189.555L151.472 189.355V188.645L148.142 188.845V186.035H151.942V185.335H147.322V192.385Z" fill="#D8D8D8"/>
<path d="M153.703 192.385H154.523V188.025L157.153 188.115V187.415L154.393 187.325C153.923 187.305 153.703 187.535 153.703 188.005V192.385Z" fill="#D8D8D8"/>
<path d="M158.565 189.835C158.565 191.265 159.315 192.485 161.095 192.485C162.675 192.485 163.275 191.415 163.465 190.645H162.645C162.465 191.405 161.915 191.805 161.095 191.805C159.865 191.805 159.415 190.995 159.365 190.055H163.295V189.735C163.295 188.205 162.375 187.315 160.975 187.315C159.565 187.315 158.565 188.235 158.565 189.835ZM159.365 189.435C159.365 188.635 159.995 188.005 160.975 188.005C161.965 188.005 162.495 188.635 162.495 189.435H159.365Z" fill="#D8D8D8"/>
<path d="M167.575 191.785C166.715 191.785 166.315 191.385 166.315 190.345V187.415H165.495V190.455C165.495 191.835 166.225 192.485 167.355 192.485C168.435 192.485 169.065 191.855 169.265 190.955H169.495L169.365 191.525V192.385H170.175V187.415H169.365V189.625C169.365 190.955 168.625 191.785 167.575 191.785Z" fill="#D8D8D8"/>
<path d="M177.594 192.385V185.035H176.774V188.145L176.914 188.715H176.674C176.464 187.935 175.794 187.315 174.664 187.315C173.224 187.315 172.294 188.425 172.294 189.895C172.294 191.375 173.224 192.485 174.664 192.485C175.794 192.485 176.464 191.865 176.674 191.095H176.914L176.774 191.655V192.385H177.594ZM176.774 189.895C176.774 191.225 175.934 191.785 174.904 191.785C173.874 191.785 173.114 191.225 173.114 189.895C173.114 188.575 173.874 188.015 174.904 188.015C175.934 188.015 176.774 188.575 176.774 189.895Z" fill="#D8D8D8"/>
<path d="M179.798 189.835C179.798 191.265 180.548 192.485 182.328 192.485C183.908 192.485 184.508 191.415 184.698 190.645H183.878C183.698 191.405 183.148 191.805 182.328 191.805C181.098 191.805 180.648 190.995 180.598 190.055H184.528V189.735C184.528 188.205 183.608 187.315 182.208 187.315C180.798 187.315 179.798 188.235 179.798 189.835ZM180.598 189.435C180.598 188.635 181.228 188.005 182.208 188.005C183.198 188.005 183.728 188.635 183.728 189.435H180.598Z" fill="#D8D8D8"/>
<path d="M189.438 188.015C190.288 188.015 190.698 188.415 190.698 189.455V192.385H191.508V189.345C191.508 187.965 190.778 187.315 189.658 187.315C188.578 187.315 187.948 187.945 187.748 188.845H187.518L187.648 188.275V187.415H186.828V192.385H187.648V190.185C187.648 188.845 188.388 188.015 189.438 188.015Z" fill="#D8D8D8"/>
<path d="M196.322 185.735H197.222V185.035H196.362C195.172 185.035 194.682 185.665 194.682 186.655V187.415H193.582V188.115H194.682V191.685H193.582V192.385H196.942V191.685H195.492V188.115H196.942V187.415H195.492V186.675C195.492 186.025 195.692 185.735 196.322 185.735Z" fill="#D8D8D8"/>
<path d="M198.784 189.835C198.784 191.265 199.534 192.485 201.314 192.485C202.894 192.485 203.494 191.415 203.684 190.645H202.864C202.684 191.405 202.134 191.805 201.314 191.805C200.084 191.805 199.634 190.995 199.584 190.055H203.514V189.735C203.514 188.205 202.594 187.315 201.194 187.315C199.784 187.315 198.784 188.235 198.784 189.835ZM199.584 189.435C199.584 188.635 200.214 188.005 201.194 188.005C202.184 188.005 202.714 188.635 202.714 189.435H199.584Z" fill="#D8D8D8"/>
<path d="M205.172 192.385H208.772V191.685H207.382V185.625C207.382 185.155 207.162 184.895 206.702 184.935L205.542 185.035V185.735L206.572 185.645V191.685H205.172V192.385Z" fill="#D8D8D8"/>
<path d="M214.67 191.095C214.67 190.025 213.61 189.805 212.63 189.485C211.83 189.225 211.49 189.075 211.49 188.595C211.49 188.145 211.93 187.985 212.48 187.985C213.27 187.985 213.68 188.315 213.68 188.985H214.5C214.5 188.165 214.03 187.315 212.48 187.315C211.34 187.315 210.67 187.835 210.67 188.625C210.67 189.525 211.43 189.815 212.37 190.115C213.18 190.365 213.85 190.475 213.85 191.125C213.85 191.635 213.49 191.815 212.72 191.815C211.76 191.815 211.26 191.415 211.26 190.555H210.44C210.44 191.735 211.1 192.485 212.71 192.485C214.2 192.485 214.67 191.845 214.67 191.095Z" fill="#D8D8D8"/>
<path d="M344.156 213.385H344.966L342.696 206.335H341.016L338.736 213.385H339.556L340.436 210.625H343.266L344.156 213.385ZM340.666 209.925L341.736 206.565H341.966L343.046 209.925H340.666Z" fill="#D8D8D8"/>
<path d="M355.152 206.335H349.442V207.035H351.902V213.385H352.712V207.035H355.152V206.335Z" fill="#D8D8D8"/>
<circle cx="218" cy="169.385" r="2" fill="#D8D8D8"/>
<circle opacity="0.1" cx="217.5" cy="169.885" r="25.5" fill="#D8D8D8"/>
</svg>
